<svg width="24" height="23" viewBox="0 0 24 23" fill="none" xmlns="http://www.w3.org/2000/svg">
<path d="M20.2123 7.8487L19.9663 8.41467C19.9279 8.50683 19.863 8.58556 19.7799 8.64093C19.6968 8.69631 19.5992 8.72586 19.4994 8.72586C19.3995 8.72586 19.3019 8.69631 19.2188 8.64093C19.1357 8.58556 19.0708 8.50683 19.0324 8.41467L18.7864 7.8487C18.3539 6.84747 17.5618 6.04471 16.5665 5.59881L15.8075 5.25983C15.7155 5.21747 15.6375 5.1496 15.5828 5.06427C15.5281 4.97893 15.499 4.8797 15.499 4.77835C15.499 4.677 15.5281 4.57777 15.5828 4.49244C15.6375 4.4071 15.7155 4.33923 15.8075 4.29688L16.5245 3.97789C17.5449 3.51929 18.3505 2.68684 18.7754 1.65201L19.0294 1.04104C19.0665 0.946395 19.1313 0.865143 19.2154 0.807873C19.2994 0.750602 19.3987 0.719971 19.5004 0.719971C19.602 0.719971 19.7014 0.750602 19.7854 0.807873C19.8694 0.865143 19.9342 0.946395 19.9713 1.04104L20.2243 1.65101C20.6488 2.68603 21.4541 3.51885 22.4742 3.97789L23.1922 4.29788C23.284 4.34035 23.3617 4.40821 23.4162 4.49344C23.4706 4.57867 23.4996 4.6777 23.4996 4.77885C23.4996 4.88 23.4706 4.97904 23.4162 5.06426C23.3617 5.14949 23.284 5.21735 23.1922 5.25983L22.4322 5.59781C21.4371 6.04416 20.6454 6.84728 20.2133 7.8487M8.4999 2.72095C10.4425 2.72065 12.3188 3.42722 13.7787 4.70879C15.2385 5.99036 16.1822 7.75936 16.4335 9.68561L18.6834 13.2244C18.8314 13.4574 18.8014 13.8044 18.4584 13.9524L16.4995 14.7904V17.7202C16.4995 18.2506 16.2888 18.7593 15.9138 19.1344C15.5387 19.5094 15.03 19.7201 14.4996 19.7201H12.5007L12.4997 22.72H3.50015V19.0262C3.50015 17.8462 3.06417 16.7293 2.25621 15.7213C1.31401 14.5449 0.723329 13.1262 0.552214 11.6288C0.381099 10.1313 0.636514 8.61594 1.28903 7.2573C1.94155 5.89865 2.96462 4.75198 4.24038 3.94941C5.51614 3.14683 6.99269 2.72099 8.4999 2.72095ZM8.4999 4.72085C7.36954 4.72081 6.26215 5.04009 5.30532 5.64191C4.34849 6.24373 3.58113 7.10361 3.09164 8.1225C2.60216 9.14138 2.41047 10.2778 2.53864 11.4009C2.66682 12.524 3.10966 13.588 3.81613 14.4704C4.91008 15.8343 5.50005 17.3872 5.50005 19.0262V20.7201H10.4998L10.5018 17.7202H14.4996V13.4724L16.0495 12.8085L14.5066 10.3836L14.4496 9.9416C14.2605 8.49749 13.5526 7.17147 12.4578 6.21087C11.3631 5.25026 9.95634 4.72066 8.4999 4.72085ZM18.9894 17.7132L20.6533 18.8232C21.8604 17.0171 22.5029 14.8928 22.4992 12.7205C22.4985 12.0372 22.4382 11.3705 22.3182 10.7206L20.3753 11.2205C20.4573 11.7092 20.4986 12.2092 20.4993 12.7205C20.5023 14.4976 19.9767 16.2355 18.9894 17.7132Z" fill="black"/>
</svg>
